G04 #@! TF.GenerationSoftware,KiCad,Pcbnew,8.0.0*
G04 #@! TF.CreationDate,2024-02-27T22:22:22+03:00*
G04 #@! TF.ProjectId,dummifier,64756d6d-6966-4696-9572-2e6b69636164,rev?*
G04 #@! TF.SameCoordinates,Original*
G04 #@! TF.FileFunction,Copper,L2,Bot*
G04 #@! TF.FilePolarity,Positive*
%FSLAX46Y46*%
G04 Gerber Fmt 4.6, Leading zero omitted, Abs format (unit mm)*
G04 Created by KiCad (PCBNEW 8.0.0) date 2024-02-27 22:22:22*
%MOMM*%
%LPD*%
G01*
G04 APERTURE LIST*
G04 #@! TA.AperFunction,SMDPad,CuDef*
%ADD10R,1.350000X0.300000*%
G04 #@! TD*
G04 #@! TA.AperFunction,SMDPad,CuDef*
%ADD11R,1.600000X1.040000*%
G04 #@! TD*
G04 #@! TA.AperFunction,ComponentPad*
%ADD12O,2.100000X1.000000*%
G04 #@! TD*
G04 #@! TA.AperFunction,ComponentPad*
%ADD13O,1.600000X1.000000*%
G04 #@! TD*
G04 #@! TA.AperFunction,ViaPad*
%ADD14C,0.600000*%
G04 #@! TD*
G04 #@! TA.AperFunction,Conductor*
%ADD15C,0.200000*%
G04 #@! TD*
G04 APERTURE END LIST*
D10*
X44105000Y-28050000D03*
X44105000Y-27550000D03*
X44105000Y-27050000D03*
X44105000Y-26550000D03*
X44105000Y-26050000D03*
X44105000Y-25550000D03*
X44105000Y-25050000D03*
X44105000Y-24550000D03*
X44105000Y-24050000D03*
X44105000Y-23550000D03*
X44105000Y-23050000D03*
X44105000Y-22550000D03*
D11*
X43980000Y-29030000D03*
X43980000Y-21570000D03*
D12*
X28085000Y-21000000D03*
D13*
X23905000Y-21000000D03*
D12*
X28085000Y-29640000D03*
D13*
X23905000Y-29640000D03*
D14*
X42230000Y-27410000D03*
X37000000Y-25235000D03*
X37000000Y-21500000D03*
X37000000Y-26825000D03*
X31275735Y-25124265D03*
X42240000Y-25590000D03*
D15*
X45320000Y-25360000D02*
X45320000Y-26260000D01*
X45320000Y-26260000D02*
X45030000Y-26550000D01*
X45030000Y-26550000D02*
X44105000Y-26550000D01*
X44105000Y-24050000D02*
X45030000Y-24050000D01*
X45320000Y-24340000D02*
X45320000Y-25360000D01*
X45030000Y-24050000D02*
X45320000Y-24340000D01*
X44105000Y-26550000D02*
X43090000Y-26550000D01*
X43090000Y-26550000D02*
X42230000Y-27410000D01*
X43980000Y-21570000D02*
X37070000Y-21570000D01*
X27835000Y-21000000D02*
X26500000Y-22335000D01*
X37000000Y-25235000D02*
X40795000Y-29030000D01*
X44020000Y-28135000D02*
X44105000Y-28050000D01*
X23905000Y-21000000D02*
X28085000Y-21000000D01*
X26500000Y-28305000D02*
X27835000Y-29640000D01*
X23905000Y-29640000D02*
X28085000Y-29640000D01*
X37070000Y-21570000D02*
X37000000Y-21500000D01*
X26500000Y-22335000D02*
X26500000Y-28305000D01*
X40795000Y-29030000D02*
X43980000Y-29030000D01*
X44145000Y-21735000D02*
X43980000Y-21570000D01*
X44020000Y-28925000D02*
X44020000Y-28135000D01*
X27835000Y-29640000D02*
X28085000Y-29640000D01*
X44145000Y-22445000D02*
X44145000Y-21735000D01*
X37000000Y-21500000D02*
X37000000Y-25235000D01*
X28085000Y-21000000D02*
X27835000Y-21000000D01*
X37000000Y-26850000D02*
X37000000Y-26825000D01*
X36529663Y-26850000D02*
X37000000Y-26850000D01*
X34155318Y-26590000D02*
X34155318Y-27240000D01*
X35065318Y-26200000D02*
X35195318Y-26200000D01*
X33765318Y-26200000D02*
X33895318Y-26200000D01*
X35845318Y-26850000D02*
X36529663Y-26850000D01*
X34805318Y-26850000D02*
X34805318Y-26460000D01*
X34415318Y-27500000D02*
X34545318Y-27500000D01*
X31275735Y-25124265D02*
X33001470Y-26850000D01*
X33001470Y-26850000D02*
X33245318Y-26850000D01*
X35455318Y-26460000D02*
X35455318Y-26590000D01*
X33505318Y-26590000D02*
X33505318Y-26460000D01*
X34155318Y-26460000D02*
X34155318Y-26590000D01*
X34805318Y-27240000D02*
X34805318Y-26850000D01*
X35715318Y-26850000D02*
X35845318Y-26850000D01*
X35195318Y-26200000D02*
G75*
G02*
X35455300Y-26460000I-18J-260000D01*
G01*
X34545318Y-27500000D02*
G75*
G03*
X34805300Y-27240000I-18J260000D01*
G01*
X35455318Y-26590000D02*
G75*
G03*
X35715318Y-26849982I259982J0D01*
G01*
X33895318Y-26200000D02*
G75*
G02*
X34155300Y-26460000I-18J-260000D01*
G01*
X33505318Y-26460000D02*
G75*
G02*
X33765318Y-26200018I259982J0D01*
G01*
X34155318Y-27240000D02*
G75*
G03*
X34415318Y-27499982I259982J0D01*
G01*
X34805318Y-26460000D02*
G75*
G02*
X35065318Y-26200018I259982J0D01*
G01*
X33245318Y-26850000D02*
G75*
G03*
X33505300Y-26590000I-18J260000D01*
G01*
X42240000Y-25590000D02*
X42700000Y-26050000D01*
X42700000Y-26050000D02*
X44105000Y-26050000D01*
M02*
