G04 #@! TF.GenerationSoftware,KiCad,Pcbnew,8.0.0*
G04 #@! TF.CreationDate,2024-02-27T22:22:22+03:00*
G04 #@! TF.ProjectId,dummifier,64756d6d-6966-4696-9572-2e6b69636164,rev?*
G04 #@! TF.SameCoordinates,Original*
G04 #@! TF.FileFunction,Legend,Top*
G04 #@! TF.FilePolarity,Positive*
%FSLAX46Y46*%
G04 Gerber Fmt 4.6, Leading zero omitted, Abs format (unit mm)*
G04 Created by KiCad (PCBNEW 8.0.0) date 2024-02-27 22:22:22*
%MOMM*%
%LPD*%
G01*
G04 APERTURE LIST*
G04 Aperture macros list*
%AMRoundRect*
0 Rectangle with rounded corners*
0 $1 Rounding radius*
0 $2 $3 $4 $5 $6 $7 $8 $9 X,Y pos of 4 corners*
0 Add a 4 corners polygon primitive as box body*
4,1,4,$2,$3,$4,$5,$6,$7,$8,$9,$2,$3,0*
0 Add four circle primitives for the rounded corners*
1,1,$1+$1,$2,$3*
1,1,$1+$1,$4,$5*
1,1,$1+$1,$6,$7*
1,1,$1+$1,$8,$9*
0 Add four rect primitives between the rounded corners*
20,1,$1+$1,$2,$3,$4,$5,0*
20,1,$1+$1,$4,$5,$6,$7,0*
20,1,$1+$1,$6,$7,$8,$9,0*
20,1,$1+$1,$8,$9,$2,$3,0*%
G04 Aperture macros list end*
%ADD10C,0.100000*%
%ADD11C,0.150000*%
%ADD12C,0.120000*%
%ADD13RoundRect,0.250000X0.350000X0.450000X-0.350000X0.450000X-0.350000X-0.450000X0.350000X-0.450000X0*%
%ADD14RoundRect,0.250000X-0.337500X-0.475000X0.337500X-0.475000X0.337500X0.475000X-0.337500X0.475000X0*%
%ADD15R,1.350000X0.300000*%
%ADD16R,1.600000X1.040000*%
%ADD17RoundRect,0.250000X-0.350000X-0.450000X0.350000X-0.450000X0.350000X0.450000X-0.350000X0.450000X0*%
%ADD18C,0.650000*%
%ADD19R,1.450000X0.600000*%
%ADD20R,1.450000X0.300000*%
%ADD21O,2.100000X1.000000*%
%ADD22O,1.600000X1.000000*%
G04 APERTURE END LIST*
D10*
X37074360Y-29367014D02*
X37074360Y-28617014D01*
X37074360Y-28617014D02*
X37252931Y-28617014D01*
X37252931Y-28617014D02*
X37360074Y-28652728D01*
X37360074Y-28652728D02*
X37431503Y-28724157D01*
X37431503Y-28724157D02*
X37467217Y-28795585D01*
X37467217Y-28795585D02*
X37502931Y-28938442D01*
X37502931Y-28938442D02*
X37502931Y-29045585D01*
X37502931Y-29045585D02*
X37467217Y-29188442D01*
X37467217Y-29188442D02*
X37431503Y-29259871D01*
X37431503Y-29259871D02*
X37360074Y-29331300D01*
X37360074Y-29331300D02*
X37252931Y-29367014D01*
X37252931Y-29367014D02*
X37074360Y-29367014D01*
X38145789Y-28867014D02*
X38145789Y-29367014D01*
X37824360Y-28867014D02*
X37824360Y-29259871D01*
X37824360Y-29259871D02*
X37860074Y-29331300D01*
X37860074Y-29331300D02*
X37931503Y-29367014D01*
X37931503Y-29367014D02*
X38038646Y-29367014D01*
X38038646Y-29367014D02*
X38110074Y-29331300D01*
X38110074Y-29331300D02*
X38145789Y-29295585D01*
X38502931Y-29367014D02*
X38502931Y-28867014D01*
X38502931Y-28938442D02*
X38538645Y-28902728D01*
X38538645Y-28902728D02*
X38610074Y-28867014D01*
X38610074Y-28867014D02*
X38717217Y-28867014D01*
X38717217Y-28867014D02*
X38788645Y-28902728D01*
X38788645Y-28902728D02*
X38824360Y-28974157D01*
X38824360Y-28974157D02*
X38824360Y-29367014D01*
X38824360Y-28974157D02*
X38860074Y-28902728D01*
X38860074Y-28902728D02*
X38931502Y-28867014D01*
X38931502Y-28867014D02*
X39038645Y-28867014D01*
X39038645Y-28867014D02*
X39110074Y-28902728D01*
X39110074Y-28902728D02*
X39145788Y-28974157D01*
X39145788Y-28974157D02*
X39145788Y-29367014D01*
X39502931Y-29367014D02*
X39502931Y-28867014D01*
X39502931Y-28938442D02*
X39538645Y-28902728D01*
X39538645Y-28902728D02*
X39610074Y-28867014D01*
X39610074Y-28867014D02*
X39717217Y-28867014D01*
X39717217Y-28867014D02*
X39788645Y-28902728D01*
X39788645Y-28902728D02*
X39824360Y-28974157D01*
X39824360Y-28974157D02*
X39824360Y-29367014D01*
X39824360Y-28974157D02*
X39860074Y-28902728D01*
X39860074Y-28902728D02*
X39931502Y-28867014D01*
X39931502Y-28867014D02*
X40038645Y-28867014D01*
X40038645Y-28867014D02*
X40110074Y-28902728D01*
X40110074Y-28902728D02*
X40145788Y-28974157D01*
X40145788Y-28974157D02*
X40145788Y-29367014D01*
X40502931Y-29367014D02*
X40502931Y-28867014D01*
X40502931Y-28617014D02*
X40467217Y-28652728D01*
X40467217Y-28652728D02*
X40502931Y-28688442D01*
X40502931Y-28688442D02*
X40538645Y-28652728D01*
X40538645Y-28652728D02*
X40502931Y-28617014D01*
X40502931Y-28617014D02*
X40502931Y-28688442D01*
X40752931Y-28867014D02*
X41038645Y-28867014D01*
X40860074Y-29367014D02*
X40860074Y-28724157D01*
X40860074Y-28724157D02*
X40895788Y-28652728D01*
X40895788Y-28652728D02*
X40967217Y-28617014D01*
X40967217Y-28617014D02*
X41038645Y-28617014D01*
X41288645Y-29367014D02*
X41288645Y-28867014D01*
X41288645Y-28617014D02*
X41252931Y-28652728D01*
X41252931Y-28652728D02*
X41288645Y-28688442D01*
X41288645Y-28688442D02*
X41324359Y-28652728D01*
X41324359Y-28652728D02*
X41288645Y-28617014D01*
X41288645Y-28617014D02*
X41288645Y-28688442D01*
X41931502Y-29331300D02*
X41860074Y-29367014D01*
X41860074Y-29367014D02*
X41717217Y-29367014D01*
X41717217Y-29367014D02*
X41645788Y-29331300D01*
X41645788Y-29331300D02*
X41610074Y-29259871D01*
X41610074Y-29259871D02*
X41610074Y-28974157D01*
X41610074Y-28974157D02*
X41645788Y-28902728D01*
X41645788Y-28902728D02*
X41717217Y-28867014D01*
X41717217Y-28867014D02*
X41860074Y-28867014D01*
X41860074Y-28867014D02*
X41931502Y-28902728D01*
X41931502Y-28902728D02*
X41967217Y-28974157D01*
X41967217Y-28974157D02*
X41967217Y-29045585D01*
X41967217Y-29045585D02*
X41610074Y-29117014D01*
X42288645Y-29367014D02*
X42288645Y-28867014D01*
X42288645Y-29009871D02*
X42324359Y-28938442D01*
X42324359Y-28938442D02*
X42360074Y-28902728D01*
X42360074Y-28902728D02*
X42431502Y-28867014D01*
X42431502Y-28867014D02*
X42502931Y-28867014D01*
D11*
X34377333Y-23695819D02*
X34044000Y-23219628D01*
X33805905Y-23695819D02*
X33805905Y-22695819D01*
X33805905Y-22695819D02*
X34186857Y-22695819D01*
X34186857Y-22695819D02*
X34282095Y-22743438D01*
X34282095Y-22743438D02*
X34329714Y-22791057D01*
X34329714Y-22791057D02*
X34377333Y-22886295D01*
X34377333Y-22886295D02*
X34377333Y-23029152D01*
X34377333Y-23029152D02*
X34329714Y-23124390D01*
X34329714Y-23124390D02*
X34282095Y-23172009D01*
X34282095Y-23172009D02*
X34186857Y-23219628D01*
X34186857Y-23219628D02*
X33805905Y-23219628D01*
X35329714Y-23695819D02*
X34758286Y-23695819D01*
X35044000Y-23695819D02*
X35044000Y-22695819D01*
X35044000Y-22695819D02*
X34948762Y-22838676D01*
X34948762Y-22838676D02*
X34853524Y-22933914D01*
X34853524Y-22933914D02*
X34758286Y-22981533D01*
X31433333Y-29359580D02*
X31385714Y-29407200D01*
X31385714Y-29407200D02*
X31242857Y-29454819D01*
X31242857Y-29454819D02*
X31147619Y-29454819D01*
X31147619Y-29454819D02*
X31004762Y-29407200D01*
X31004762Y-29407200D02*
X30909524Y-29311961D01*
X30909524Y-29311961D02*
X30861905Y-29216723D01*
X30861905Y-29216723D02*
X30814286Y-29026247D01*
X30814286Y-29026247D02*
X30814286Y-28883390D01*
X30814286Y-28883390D02*
X30861905Y-28692914D01*
X30861905Y-28692914D02*
X30909524Y-28597676D01*
X30909524Y-28597676D02*
X31004762Y-28502438D01*
X31004762Y-28502438D02*
X31147619Y-28454819D01*
X31147619Y-28454819D02*
X31242857Y-28454819D01*
X31242857Y-28454819D02*
X31385714Y-28502438D01*
X31385714Y-28502438D02*
X31433333Y-28550057D01*
X32385714Y-29454819D02*
X31814286Y-29454819D01*
X32100000Y-29454819D02*
X32100000Y-28454819D01*
X32100000Y-28454819D02*
X32004762Y-28597676D01*
X32004762Y-28597676D02*
X31909524Y-28692914D01*
X31909524Y-28692914D02*
X31814286Y-28740533D01*
X34370833Y-27339819D02*
X34037500Y-26863628D01*
X33799405Y-27339819D02*
X33799405Y-26339819D01*
X33799405Y-26339819D02*
X34180357Y-26339819D01*
X34180357Y-26339819D02*
X34275595Y-26387438D01*
X34275595Y-26387438D02*
X34323214Y-26435057D01*
X34323214Y-26435057D02*
X34370833Y-26530295D01*
X34370833Y-26530295D02*
X34370833Y-26673152D01*
X34370833Y-26673152D02*
X34323214Y-26768390D01*
X34323214Y-26768390D02*
X34275595Y-26816009D01*
X34275595Y-26816009D02*
X34180357Y-26863628D01*
X34180357Y-26863628D02*
X33799405Y-26863628D01*
X34751786Y-26435057D02*
X34799405Y-26387438D01*
X34799405Y-26387438D02*
X34894643Y-26339819D01*
X34894643Y-26339819D02*
X35132738Y-26339819D01*
X35132738Y-26339819D02*
X35227976Y-26387438D01*
X35227976Y-26387438D02*
X35275595Y-26435057D01*
X35275595Y-26435057D02*
X35323214Y-26530295D01*
X35323214Y-26530295D02*
X35323214Y-26625533D01*
X35323214Y-26625533D02*
X35275595Y-26768390D01*
X35275595Y-26768390D02*
X34704167Y-27339819D01*
X34704167Y-27339819D02*
X35323214Y-27339819D01*
X39330333Y-23695819D02*
X38997000Y-23219628D01*
X38758905Y-23695819D02*
X38758905Y-22695819D01*
X38758905Y-22695819D02*
X39139857Y-22695819D01*
X39139857Y-22695819D02*
X39235095Y-22743438D01*
X39235095Y-22743438D02*
X39282714Y-22791057D01*
X39282714Y-22791057D02*
X39330333Y-22886295D01*
X39330333Y-22886295D02*
X39330333Y-23029152D01*
X39330333Y-23029152D02*
X39282714Y-23124390D01*
X39282714Y-23124390D02*
X39235095Y-23172009D01*
X39235095Y-23172009D02*
X39139857Y-23219628D01*
X39139857Y-23219628D02*
X38758905Y-23219628D01*
X39663667Y-22695819D02*
X40282714Y-22695819D01*
X40282714Y-22695819D02*
X39949381Y-23076771D01*
X39949381Y-23076771D02*
X40092238Y-23076771D01*
X40092238Y-23076771D02*
X40187476Y-23124390D01*
X40187476Y-23124390D02*
X40235095Y-23172009D01*
X40235095Y-23172009D02*
X40282714Y-23267247D01*
X40282714Y-23267247D02*
X40282714Y-23505342D01*
X40282714Y-23505342D02*
X40235095Y-23600580D01*
X40235095Y-23600580D02*
X40187476Y-23648200D01*
X40187476Y-23648200D02*
X40092238Y-23695819D01*
X40092238Y-23695819D02*
X39806524Y-23695819D01*
X39806524Y-23695819D02*
X39711286Y-23648200D01*
X39711286Y-23648200D02*
X39663667Y-23600580D01*
X39333333Y-27378819D02*
X39000000Y-26902628D01*
X38761905Y-27378819D02*
X38761905Y-26378819D01*
X38761905Y-26378819D02*
X39142857Y-26378819D01*
X39142857Y-26378819D02*
X39238095Y-26426438D01*
X39238095Y-26426438D02*
X39285714Y-26474057D01*
X39285714Y-26474057D02*
X39333333Y-26569295D01*
X39333333Y-26569295D02*
X39333333Y-26712152D01*
X39333333Y-26712152D02*
X39285714Y-26807390D01*
X39285714Y-26807390D02*
X39238095Y-26855009D01*
X39238095Y-26855009D02*
X39142857Y-26902628D01*
X39142857Y-26902628D02*
X38761905Y-26902628D01*
X40190476Y-26712152D02*
X40190476Y-27378819D01*
X39952381Y-26331200D02*
X39714286Y-27045485D01*
X39714286Y-27045485D02*
X40333333Y-27045485D01*
X24624771Y-28091428D02*
X25053342Y-28091428D01*
X25053342Y-28091428D02*
X25139057Y-28119999D01*
X25139057Y-28119999D02*
X25196200Y-28177142D01*
X25196200Y-28177142D02*
X25224771Y-28262856D01*
X25224771Y-28262856D02*
X25224771Y-28319999D01*
X25224771Y-27519999D02*
X25224771Y-27805713D01*
X25224771Y-27805713D02*
X24624771Y-27805713D01*
X25167628Y-26977142D02*
X25196200Y-27005714D01*
X25196200Y-27005714D02*
X25224771Y-27091428D01*
X25224771Y-27091428D02*
X25224771Y-27148571D01*
X25224771Y-27148571D02*
X25196200Y-27234285D01*
X25196200Y-27234285D02*
X25139057Y-27291428D01*
X25139057Y-27291428D02*
X25081914Y-27319999D01*
X25081914Y-27319999D02*
X24967628Y-27348571D01*
X24967628Y-27348571D02*
X24881914Y-27348571D01*
X24881914Y-27348571D02*
X24767628Y-27319999D01*
X24767628Y-27319999D02*
X24710485Y-27291428D01*
X24710485Y-27291428D02*
X24653342Y-27234285D01*
X24653342Y-27234285D02*
X24624771Y-27148571D01*
X24624771Y-27148571D02*
X24624771Y-27091428D01*
X24624771Y-27091428D02*
X24653342Y-27005714D01*
X24653342Y-27005714D02*
X24681914Y-26977142D01*
X24624771Y-26548571D02*
X25053342Y-26548571D01*
X25053342Y-26548571D02*
X25139057Y-26577142D01*
X25139057Y-26577142D02*
X25196200Y-26634285D01*
X25196200Y-26634285D02*
X25224771Y-26719999D01*
X25224771Y-26719999D02*
X25224771Y-26777142D01*
X25224771Y-25977142D02*
X25224771Y-26262856D01*
X25224771Y-26262856D02*
X24624771Y-26262856D01*
X25167628Y-25434285D02*
X25196200Y-25462857D01*
X25196200Y-25462857D02*
X25224771Y-25548571D01*
X25224771Y-25548571D02*
X25224771Y-25605714D01*
X25224771Y-25605714D02*
X25196200Y-25691428D01*
X25196200Y-25691428D02*
X25139057Y-25748571D01*
X25139057Y-25748571D02*
X25081914Y-25777142D01*
X25081914Y-25777142D02*
X24967628Y-25805714D01*
X24967628Y-25805714D02*
X24881914Y-25805714D01*
X24881914Y-25805714D02*
X24767628Y-25777142D01*
X24767628Y-25777142D02*
X24710485Y-25748571D01*
X24710485Y-25748571D02*
X24653342Y-25691428D01*
X24653342Y-25691428D02*
X24624771Y-25605714D01*
X24624771Y-25605714D02*
X24624771Y-25548571D01*
X24624771Y-25548571D02*
X24653342Y-25462857D01*
X24653342Y-25462857D02*
X24681914Y-25434285D01*
X24624771Y-25005714D02*
X25053342Y-25005714D01*
X25053342Y-25005714D02*
X25139057Y-25034285D01*
X25139057Y-25034285D02*
X25196200Y-25091428D01*
X25196200Y-25091428D02*
X25224771Y-25177142D01*
X25224771Y-25177142D02*
X25224771Y-25234285D01*
X25224771Y-24434285D02*
X25224771Y-24719999D01*
X25224771Y-24719999D02*
X24624771Y-24719999D01*
X25167628Y-23891428D02*
X25196200Y-23920000D01*
X25196200Y-23920000D02*
X25224771Y-24005714D01*
X25224771Y-24005714D02*
X25224771Y-24062857D01*
X25224771Y-24062857D02*
X25196200Y-24148571D01*
X25196200Y-24148571D02*
X25139057Y-24205714D01*
X25139057Y-24205714D02*
X25081914Y-24234285D01*
X25081914Y-24234285D02*
X24967628Y-24262857D01*
X24967628Y-24262857D02*
X24881914Y-24262857D01*
X24881914Y-24262857D02*
X24767628Y-24234285D01*
X24767628Y-24234285D02*
X24710485Y-24205714D01*
X24710485Y-24205714D02*
X24653342Y-24148571D01*
X24653342Y-24148571D02*
X24624771Y-24062857D01*
X24624771Y-24062857D02*
X24624771Y-24005714D01*
X24624771Y-24005714D02*
X24653342Y-23920000D01*
X24653342Y-23920000D02*
X24681914Y-23891428D01*
X24624771Y-23462857D02*
X25053342Y-23462857D01*
X25053342Y-23462857D02*
X25139057Y-23491428D01*
X25139057Y-23491428D02*
X25196200Y-23548571D01*
X25196200Y-23548571D02*
X25224771Y-23634285D01*
X25224771Y-23634285D02*
X25224771Y-23691428D01*
X25224771Y-22891428D02*
X25224771Y-23177142D01*
X25224771Y-23177142D02*
X24624771Y-23177142D01*
X25167628Y-22348571D02*
X25196200Y-22377143D01*
X25196200Y-22377143D02*
X25224771Y-22462857D01*
X25224771Y-22462857D02*
X25224771Y-22520000D01*
X25224771Y-22520000D02*
X25196200Y-22605714D01*
X25196200Y-22605714D02*
X25139057Y-22662857D01*
X25139057Y-22662857D02*
X25081914Y-22691428D01*
X25081914Y-22691428D02*
X24967628Y-22720000D01*
X24967628Y-22720000D02*
X24881914Y-22720000D01*
X24881914Y-22720000D02*
X24767628Y-22691428D01*
X24767628Y-22691428D02*
X24710485Y-22662857D01*
X24710485Y-22662857D02*
X24653342Y-22605714D01*
X24653342Y-22605714D02*
X24624771Y-22520000D01*
X24624771Y-22520000D02*
X24624771Y-22462857D01*
X24624771Y-22462857D02*
X24653342Y-22377143D01*
X24653342Y-22377143D02*
X24681914Y-22348571D01*
D12*
X34764564Y-20765000D02*
X34310436Y-20765000D01*
X34764564Y-22235000D02*
X34310436Y-22235000D01*
X34276248Y-28265000D02*
X34798752Y-28265000D01*
X34276248Y-29735000D02*
X34798752Y-29735000D01*
D10*
X44960000Y-21050000D02*
X43180000Y-21050000D01*
X44960000Y-26250000D02*
X44960000Y-21050000D01*
X44960000Y-26250000D02*
X44960000Y-29550000D01*
X44960000Y-29550000D02*
X43180000Y-29550000D01*
D12*
X34764564Y-24500000D02*
X34310436Y-24500000D01*
X34764564Y-25970000D02*
X34310436Y-25970000D01*
X39272936Y-20765000D02*
X39727064Y-20765000D01*
X39272936Y-22235000D02*
X39727064Y-22235000D01*
X39272936Y-24500000D02*
X39727064Y-24500000D01*
X39272936Y-25970000D02*
X39727064Y-25970000D01*
X21055000Y-20620000D02*
X21055000Y-30020000D01*
X22955000Y-20620000D02*
X21055000Y-20620000D01*
X22955000Y-30020000D02*
X21055000Y-30020000D01*
X26855000Y-20620000D02*
X24855000Y-20620000D01*
X26855000Y-30020000D02*
X24855000Y-30020000D01*
%LPC*%
D13*
X35537500Y-21500000D03*
X33537500Y-21500000D03*
D14*
X33500000Y-29000000D03*
X35575000Y-29000000D03*
D15*
X44105000Y-22550000D03*
X44105000Y-23050000D03*
X44105000Y-23550000D03*
X44105000Y-24050000D03*
X44105000Y-24550000D03*
X44105000Y-25050000D03*
X44105000Y-25550000D03*
X44105000Y-26050000D03*
X44105000Y-26550000D03*
X44105000Y-27050000D03*
X44105000Y-27550000D03*
X44105000Y-28050000D03*
D16*
X43980000Y-29030000D03*
X43980000Y-21570000D03*
D13*
X35537500Y-25235000D03*
X33537500Y-25235000D03*
D17*
X38500000Y-21500000D03*
X40500000Y-21500000D03*
X38500000Y-25235000D03*
X40500000Y-25235000D03*
D18*
X27555000Y-22430000D03*
X27555000Y-28210000D03*
D19*
X29000000Y-22070000D03*
X29000000Y-22870000D03*
D20*
X29000000Y-24070000D03*
X29000000Y-25070000D03*
X29000000Y-25570000D03*
X29000000Y-26570000D03*
D19*
X29000000Y-27770000D03*
X29000000Y-28570000D03*
X29000000Y-28570000D03*
X29000000Y-27770000D03*
D20*
X29000000Y-27070000D03*
X29000000Y-26070000D03*
X29000000Y-24570000D03*
X29000000Y-23570000D03*
D19*
X29000000Y-22870000D03*
X29000000Y-22070000D03*
D21*
X28085000Y-21000000D03*
D22*
X23905000Y-21000000D03*
D21*
X28085000Y-29640000D03*
D22*
X23905000Y-29640000D03*
%LPD*%
M02*
